<?xml version="1.0" encoding="utf-8" standalone="no"?>
<!DOCTYPE svg PUBLIC "-//W3C//DTD SVG 1.1//EN"
  "http://www.w3.org/Graphics/SVG/1.1/DTD/svg11.dtd">
<svg xmlns:xlink="http://www.w3.org/1999/xlink" width="460.8pt" height="345.6pt" viewBox="0 0 460.8 345.6" xmlns="http://www.w3.org/2000/svg" version="1.1">
 <metadata>
  <rdf:RDF xmlns:dc="http://purl.org/dc/elements/1.1/" xmlns:cc="http://creativecommons.org/ns#" xmlns:rdf="http://www.w3.org/1999/02/22-rdf-syntax-ns#">
   <cc:Work>
    <dc:type rdf:resource="http://purl.org/dc/dcmitype/StillImage"/>
    <dc:date>2023-09-25T17:05:58.858206</dc:date>
    <dc:format>image/svg+xml</dc:format>
    <dc:creator>
     <cc:Agent>
      <dc:title>Matplotlib v3.7.2, https://matplotlib.org/</dc:title>
     </cc:Agent>
    </dc:creator>
   </cc:Work>
  </rdf:RDF>
 </metadata>
 <defs>
  <style type="text/css">*{stroke-linejoin: round; stroke-linecap: butt}</style>
 </defs>
 <g id="figure_1">
  <g id="patch_1">
   <path d="M 0 345.6 
L 460.8 345.6 
L 460.8 0 
L 0 0 
z
" style="fill: #ffffff"/>
  </g>
  <g id="axes_1">
   <g id="patch_2">
    <path d="M 57.6 307.584 
L 414.72 307.584 
L 414.72 41.472 
L 57.6 41.472 
z
" style="fill: #ffffff"/>
   </g>
   <g id="matplotlib.axis_1">
    <g id="xtick_1">
     <g id="line2d_1">
      <path d="M 73.832727 307.584 
L 73.832727 41.472 
" clip-path="url(#p1f3585c6b0)" style="fill: none; stroke: #b0b0b0; stroke-width: 0.8; stroke-linecap: square"/>
     </g>
     <g id="line2d_2">
      <defs>
       <path id="mf7b7f87c18" d="M 0 0 
L 0 3.5 
" style="stroke: #000000; stroke-width: 0.8"/>
      </defs>
      <g>
       <use xlink:href="#mf7b7f87c18" x="73.832727" y="307.584" style="stroke: #000000; stroke-width: 0.8"/>
      </g>
     </g>
     <g id="text_1">
      <!-- 0 -->
      <g transform="translate(70.651477 322.182437) scale(0.1 -0.1)">
       <defs>
        <path id="DejaVuSans-30" d="M 2034 4250 
Q 1547 4250 1301 3770 
Q 1056 3291 1056 2328 
Q 1056 1369 1301 889 
Q 1547 409 2034 409 
Q 2525 409 2770 889 
Q 3016 1369 3016 2328 
Q 3016 3291 2770 3770 
Q 2525 4250 2034 4250 
z
M 2034 4750 
Q 2819 4750 3233 4129 
Q 3647 3509 3647 2328 
Q 3647 1150 3233 529 
Q 2819 -91 2034 -91 
Q 1250 -91 836 529 
Q 422 1150 422 2328 
Q 422 3509 836 4129 
Q 1250 4750 2034 4750 
z
" transform="scale(0.015625)"/>
       </defs>
       <use xlink:href="#DejaVuSans-30"/>
      </g>
     </g>
    </g>
    <g id="xtick_2">
     <g id="line2d_3">
      <path d="M 133.402369 307.584 
L 133.402369 41.472 
" clip-path="url(#p1f3585c6b0)" style="fill: none; stroke: #b0b0b0; stroke-width: 0.8; stroke-linecap: square"/>
     </g>
     <g id="line2d_4">
      <g>
       <use xlink:href="#mf7b7f87c18" x="133.402369" y="307.584" style="stroke: #000000; stroke-width: 0.8"/>
      </g>
     </g>
     <g id="text_2">
      <!-- 200 -->
      <g transform="translate(123.858619 322.182437) scale(0.1 -0.1)">
       <defs>
        <path id="DejaVuSans-32" d="M 1228 531 
L 3431 531 
L 3431 0 
L 469 0 
L 469 531 
Q 828 903 1448 1529 
Q 2069 2156 2228 2338 
Q 2531 2678 2651 2914 
Q 2772 3150 2772 3378 
Q 2772 3750 2511 3984 
Q 2250 4219 1831 4219 
Q 1534 4219 1204 4116 
Q 875 4013 500 3803 
L 500 4441 
Q 881 4594 1212 4672 
Q 1544 4750 1819 4750 
Q 2544 4750 2975 4387 
Q 3406 4025 3406 3419 
Q 3406 3131 3298 2873 
Q 3191 2616 2906 2266 
Q 2828 2175 2409 1742 
Q 1991 1309 1228 531 
z
" transform="scale(0.015625)"/>
       </defs>
       <use xlink:href="#DejaVuSans-32"/>
       <use xlink:href="#DejaVuSans-30" x="63.623047"/>
       <use xlink:href="#DejaVuSans-30" x="127.246094"/>
      </g>
     </g>
    </g>
    <g id="xtick_3">
     <g id="line2d_5">
      <path d="M 192.97201 307.584 
L 192.97201 41.472 
" clip-path="url(#p1f3585c6b0)" style="fill: none; stroke: #b0b0b0; stroke-width: 0.8; stroke-linecap: square"/>
     </g>
     <g id="line2d_6">
      <g>
       <use xlink:href="#mf7b7f87c18" x="192.97201" y="307.584" style="stroke: #000000; stroke-width: 0.8"/>
      </g>
     </g>
     <g id="text_3">
      <!-- 400 -->
      <g transform="translate(183.42826 322.182437) scale(0.1 -0.1)">
       <defs>
        <path id="DejaVuSans-34" d="M 2419 4116 
L 825 1625 
L 2419 1625 
L 2419 4116 
z
M 2253 4666 
L 3047 4666 
L 3047 1625 
L 3713 1625 
L 3713 1100 
L 3047 1100 
L 3047 0 
L 2419 0 
L 2419 1100 
L 313 1100 
L 313 1709 
L 2253 4666 
z
" transform="scale(0.015625)"/>
       </defs>
       <use xlink:href="#DejaVuSans-34"/>
       <use xlink:href="#DejaVuSans-30" x="63.623047"/>
       <use xlink:href="#DejaVuSans-30" x="127.246094"/>
      </g>
     </g>
    </g>
    <g id="xtick_4">
     <g id="line2d_7">
      <path d="M 252.541651 307.584 
L 252.541651 41.472 
" clip-path="url(#p1f3585c6b0)" style="fill: none; stroke: #b0b0b0; stroke-width: 0.8; stroke-linecap: square"/>
     </g>
     <g id="line2d_8">
      <g>
       <use xlink:href="#mf7b7f87c18" x="252.541651" y="307.584" style="stroke: #000000; stroke-width: 0.8"/>
      </g>
     </g>
     <g id="text_4">
      <!-- 600 -->
      <g transform="translate(242.997901 322.182437) scale(0.1 -0.1)">
       <defs>
        <path id="DejaVuSans-36" d="M 2113 2584 
Q 1688 2584 1439 2293 
Q 1191 2003 1191 1497 
Q 1191 994 1439 701 
Q 1688 409 2113 409 
Q 2538 409 2786 701 
Q 3034 994 3034 1497 
Q 3034 2003 2786 2293 
Q 2538 2584 2113 2584 
z
M 3366 4563 
L 3366 3988 
Q 3128 4100 2886 4159 
Q 2644 4219 2406 4219 
Q 1781 4219 1451 3797 
Q 1122 3375 1075 2522 
Q 1259 2794 1537 2939 
Q 1816 3084 2150 3084 
Q 2853 3084 3261 2657 
Q 3669 2231 3669 1497 
Q 3669 778 3244 343 
Q 2819 -91 2113 -91 
Q 1303 -91 875 529 
Q 447 1150 447 2328 
Q 447 3434 972 4092 
Q 1497 4750 2381 4750 
Q 2619 4750 2861 4703 
Q 3103 4656 3366 4563 
z
" transform="scale(0.015625)"/>
       </defs>
       <use xlink:href="#DejaVuSans-36"/>
       <use xlink:href="#DejaVuSans-30" x="63.623047"/>
       <use xlink:href="#DejaVuSans-30" x="127.246094"/>
      </g>
     </g>
    </g>
    <g id="xtick_5">
     <g id="line2d_9">
      <path d="M 312.111293 307.584 
L 312.111293 41.472 
" clip-path="url(#p1f3585c6b0)" style="fill: none; stroke: #b0b0b0; stroke-width: 0.8; stroke-linecap: square"/>
     </g>
     <g id="line2d_10">
      <g>
       <use xlink:href="#mf7b7f87c18" x="312.111293" y="307.584" style="stroke: #000000; stroke-width: 0.8"/>
      </g>
     </g>
     <g id="text_5">
      <!-- 800 -->
      <g transform="translate(302.567543 322.182437) scale(0.1 -0.1)">
       <defs>
        <path id="DejaVuSans-38" d="M 2034 2216 
Q 1584 2216 1326 1975 
Q 1069 1734 1069 1313 
Q 1069 891 1326 650 
Q 1584 409 2034 409 
Q 2484 409 2743 651 
Q 3003 894 3003 1313 
Q 3003 1734 2745 1975 
Q 2488 2216 2034 2216 
z
M 1403 2484 
Q 997 2584 770 2862 
Q 544 3141 544 3541 
Q 544 4100 942 4425 
Q 1341 4750 2034 4750 
Q 2731 4750 3128 4425 
Q 3525 4100 3525 3541 
Q 3525 3141 3298 2862 
Q 3072 2584 2669 2484 
Q 3125 2378 3379 2068 
Q 3634 1759 3634 1313 
Q 3634 634 3220 271 
Q 2806 -91 2034 -91 
Q 1263 -91 848 271 
Q 434 634 434 1313 
Q 434 1759 690 2068 
Q 947 2378 1403 2484 
z
M 1172 3481 
Q 1172 3119 1398 2916 
Q 1625 2713 2034 2713 
Q 2441 2713 2670 2916 
Q 2900 3119 2900 3481 
Q 2900 3844 2670 4047 
Q 2441 4250 2034 4250 
Q 1625 4250 1398 4047 
Q 1172 3844 1172 3481 
z
" transform="scale(0.015625)"/>
       </defs>
       <use xlink:href="#DejaVuSans-38"/>
       <use xlink:href="#DejaVuSans-30" x="63.623047"/>
       <use xlink:href="#DejaVuSans-30" x="127.246094"/>
      </g>
     </g>
    </g>
    <g id="xtick_6">
     <g id="line2d_11">
      <path d="M 371.680934 307.584 
L 371.680934 41.472 
" clip-path="url(#p1f3585c6b0)" style="fill: none; stroke: #b0b0b0; stroke-width: 0.8; stroke-linecap: square"/>
     </g>
     <g id="line2d_12">
      <g>
       <use xlink:href="#mf7b7f87c18" x="371.680934" y="307.584" style="stroke: #000000; stroke-width: 0.8"/>
      </g>
     </g>
     <g id="text_6">
      <!-- 1000 -->
      <g transform="translate(358.955934 322.182437) scale(0.1 -0.1)">
       <defs>
        <path id="DejaVuSans-31" d="M 794 531 
L 1825 531 
L 1825 4091 
L 703 3866 
L 703 4441 
L 1819 4666 
L 2450 4666 
L 2450 531 
L 3481 531 
L 3481 0 
L 794 0 
L 794 531 
z
" transform="scale(0.015625)"/>
       </defs>
       <use xlink:href="#DejaVuSans-31"/>
       <use xlink:href="#DejaVuSans-30" x="63.623047"/>
       <use xlink:href="#DejaVuSans-30" x="127.246094"/>
       <use xlink:href="#DejaVuSans-30" x="190.869141"/>
      </g>
     </g>
    </g>
    <g id="text_7">
     <!-- Pixel index -->
     <g transform="translate(209.330312 335.860562) scale(0.1 -0.1)">
      <defs>
       <path id="DejaVuSans-50" d="M 1259 4147 
L 1259 2394 
L 2053 2394 
Q 2494 2394 2734 2622 
Q 2975 2850 2975 3272 
Q 2975 3691 2734 3919 
Q 2494 4147 2053 4147 
L 1259 4147 
z
M 628 4666 
L 2053 4666 
Q 2838 4666 3239 4311 
Q 3641 3956 3641 3272 
Q 3641 2581 3239 2228 
Q 2838 1875 2053 1875 
L 1259 1875 
L 1259 0 
L 628 0 
L 628 4666 
z
" transform="scale(0.015625)"/>
       <path id="DejaVuSans-69" d="M 603 3500 
L 1178 3500 
L 1178 0 
L 603 0 
L 603 3500 
z
M 603 4863 
L 1178 4863 
L 1178 4134 
L 603 4134 
L 603 4863 
z
" transform="scale(0.015625)"/>
       <path id="DejaVuSans-78" d="M 3513 3500 
L 2247 1797 
L 3578 0 
L 2900 0 
L 1881 1375 
L 863 0 
L 184 0 
L 1544 1831 
L 300 3500 
L 978 3500 
L 1906 2253 
L 2834 3500 
L 3513 3500 
z
" transform="scale(0.015625)"/>
       <path id="DejaVuSans-65" d="M 3597 1894 
L 3597 1613 
L 953 1613 
Q 991 1019 1311 708 
Q 1631 397 2203 397 
Q 2534 397 2845 478 
Q 3156 559 3463 722 
L 3463 178 
Q 3153 47 2828 -22 
Q 2503 -91 2169 -91 
Q 1331 -91 842 396 
Q 353 884 353 1716 
Q 353 2575 817 3079 
Q 1281 3584 2069 3584 
Q 2775 3584 3186 3129 
Q 3597 2675 3597 1894 
z
M 3022 2063 
Q 3016 2534 2758 2815 
Q 2500 3097 2075 3097 
Q 1594 3097 1305 2825 
Q 1016 2553 972 2059 
L 3022 2063 
z
" transform="scale(0.015625)"/>
       <path id="DejaVuSans-6c" d="M 603 4863 
L 1178 4863 
L 1178 0 
L 603 0 
L 603 4863 
z
" transform="scale(0.015625)"/>
       <path id="DejaVuSans-20" transform="scale(0.015625)"/>
       <path id="DejaVuSans-6e" d="M 3513 2113 
L 3513 0 
L 2938 0 
L 2938 2094 
Q 2938 2591 2744 2837 
Q 2550 3084 2163 3084 
Q 1697 3084 1428 2787 
Q 1159 2491 1159 1978 
L 1159 0 
L 581 0 
L 581 3500 
L 1159 3500 
L 1159 2956 
Q 1366 3272 1645 3428 
Q 1925 3584 2291 3584 
Q 2894 3584 3203 3211 
Q 3513 2838 3513 2113 
z
" transform="scale(0.015625)"/>
       <path id="DejaVuSans-64" d="M 2906 2969 
L 2906 4863 
L 3481 4863 
L 3481 0 
L 2906 0 
L 2906 525 
Q 2725 213 2448 61 
Q 2172 -91 1784 -91 
Q 1150 -91 751 415 
Q 353 922 353 1747 
Q 353 2572 751 3078 
Q 1150 3584 1784 3584 
Q 2172 3584 2448 3432 
Q 2725 3281 2906 2969 
z
M 947 1747 
Q 947 1113 1208 752 
Q 1469 391 1925 391 
Q 2381 391 2643 752 
Q 2906 1113 2906 1747 
Q 2906 2381 2643 2742 
Q 2381 3103 1925 3103 
Q 1469 3103 1208 2742 
Q 947 2381 947 1747 
z
" transform="scale(0.015625)"/>
      </defs>
      <use xlink:href="#DejaVuSans-50"/>
      <use xlink:href="#DejaVuSans-69" x="58.052734"/>
      <use xlink:href="#DejaVuSans-78" x="85.835938"/>
      <use xlink:href="#DejaVuSans-65" x="141.890625"/>
      <use xlink:href="#DejaVuSans-6c" x="203.414062"/>
      <use xlink:href="#DejaVuSans-20" x="231.197266"/>
      <use xlink:href="#DejaVuSans-69" x="262.984375"/>
      <use xlink:href="#DejaVuSans-6e" x="290.767578"/>
      <use xlink:href="#DejaVuSans-64" x="354.146484"/>
      <use xlink:href="#DejaVuSans-65" x="417.623047"/>
      <use xlink:href="#DejaVuSans-78" x="477.396484"/>
     </g>
    </g>
   </g>
   <g id="matplotlib.axis_2">
    <g id="ytick_1">
     <g id="line2d_13">
      <path d="M 57.6 282.285295 
L 414.72 282.285295 
" clip-path="url(#p1f3585c6b0)" style="fill: none; stroke: #b0b0b0; stroke-width: 0.8; stroke-linecap: square"/>
     </g>
     <g id="line2d_14">
      <defs>
       <path id="m9e94f64379" d="M 0 0 
L -3.5 0 
" style="stroke: #000000; stroke-width: 0.8"/>
      </defs>
      <g>
       <use xlink:href="#m9e94f64379" x="57.6" y="282.285295" style="stroke: #000000; stroke-width: 0.8"/>
      </g>
     </g>
     <g id="text_8">
      <!-- 100 -->
      <g transform="translate(31.5125 286.084514) scale(0.1 -0.1)">
       <use xlink:href="#DejaVuSans-31"/>
       <use xlink:href="#DejaVuSans-30" x="63.623047"/>
       <use xlink:href="#DejaVuSans-30" x="127.246094"/>
      </g>
     </g>
    </g>
    <g id="ytick_2">
     <g id="line2d_15">
      <path d="M 57.6 237.579453 
L 414.72 237.579453 
" clip-path="url(#p1f3585c6b0)" style="fill: none; stroke: #b0b0b0; stroke-width: 0.8; stroke-linecap: square"/>
     </g>
     <g id="line2d_16">
      <g>
       <use xlink:href="#m9e94f64379" x="57.6" y="237.579453" style="stroke: #000000; stroke-width: 0.8"/>
      </g>
     </g>
     <g id="text_9">
      <!-- 200 -->
      <g transform="translate(31.5125 241.378672) scale(0.1 -0.1)">
       <use xlink:href="#DejaVuSans-32"/>
       <use xlink:href="#DejaVuSans-30" x="63.623047"/>
       <use xlink:href="#DejaVuSans-30" x="127.246094"/>
      </g>
     </g>
    </g>
    <g id="ytick_3">
     <g id="line2d_17">
      <path d="M 57.6 192.873612 
L 414.72 192.873612 
" clip-path="url(#p1f3585c6b0)" style="fill: none; stroke: #b0b0b0; stroke-width: 0.8; stroke-linecap: square"/>
     </g>
     <g id="line2d_18">
      <g>
       <use xlink:href="#m9e94f64379" x="57.6" y="192.873612" style="stroke: #000000; stroke-width: 0.8"/>
      </g>
     </g>
     <g id="text_10">
      <!-- 300 -->
      <g transform="translate(31.5125 196.67283) scale(0.1 -0.1)">
       <defs>
        <path id="DejaVuSans-33" d="M 2597 2516 
Q 3050 2419 3304 2112 
Q 3559 1806 3559 1356 
Q 3559 666 3084 287 
Q 2609 -91 1734 -91 
Q 1441 -91 1130 -33 
Q 819 25 488 141 
L 488 750 
Q 750 597 1062 519 
Q 1375 441 1716 441 
Q 2309 441 2620 675 
Q 2931 909 2931 1356 
Q 2931 1769 2642 2001 
Q 2353 2234 1838 2234 
L 1294 2234 
L 1294 2753 
L 1863 2753 
Q 2328 2753 2575 2939 
Q 2822 3125 2822 3475 
Q 2822 3834 2567 4026 
Q 2313 4219 1838 4219 
Q 1578 4219 1281 4162 
Q 984 4106 628 3988 
L 628 4550 
Q 988 4650 1302 4700 
Q 1616 4750 1894 4750 
Q 2613 4750 3031 4423 
Q 3450 4097 3450 3541 
Q 3450 3153 3228 2886 
Q 3006 2619 2597 2516 
z
" transform="scale(0.015625)"/>
       </defs>
       <use xlink:href="#DejaVuSans-33"/>
       <use xlink:href="#DejaVuSans-30" x="63.623047"/>
       <use xlink:href="#DejaVuSans-30" x="127.246094"/>
      </g>
     </g>
    </g>
    <g id="ytick_4">
     <g id="line2d_19">
      <path d="M 57.6 148.16777 
L 414.72 148.16777 
" clip-path="url(#p1f3585c6b0)" style="fill: none; stroke: #b0b0b0; stroke-width: 0.8; stroke-linecap: square"/>
     </g>
     <g id="line2d_20">
      <g>
       <use xlink:href="#m9e94f64379" x="57.6" y="148.16777" style="stroke: #000000; stroke-width: 0.8"/>
      </g>
     </g>
     <g id="text_11">
      <!-- 400 -->
      <g transform="translate(31.5125 151.966989) scale(0.1 -0.1)">
       <use xlink:href="#DejaVuSans-34"/>
       <use xlink:href="#DejaVuSans-30" x="63.623047"/>
       <use xlink:href="#DejaVuSans-30" x="127.246094"/>
      </g>
     </g>
    </g>
    <g id="ytick_5">
     <g id="line2d_21">
      <path d="M 57.6 103.461928 
L 414.72 103.461928 
" clip-path="url(#p1f3585c6b0)" style="fill: none; stroke: #b0b0b0; stroke-width: 0.8; stroke-linecap: square"/>
     </g>
     <g id="line2d_22">
      <g>
       <use xlink:href="#m9e94f64379" x="57.6" y="103.461928" style="stroke: #000000; stroke-width: 0.8"/>
      </g>
     </g>
     <g id="text_12">
      <!-- 500 -->
      <g transform="translate(31.5125 107.261147) scale(0.1 -0.1)">
       <defs>
        <path id="DejaVuSans-35" d="M 691 4666 
L 3169 4666 
L 3169 4134 
L 1269 4134 
L 1269 2991 
Q 1406 3038 1543 3061 
Q 1681 3084 1819 3084 
Q 2600 3084 3056 2656 
Q 3513 2228 3513 1497 
Q 3513 744 3044 326 
Q 2575 -91 1722 -91 
Q 1428 -91 1123 -41 
Q 819 9 494 109 
L 494 744 
Q 775 591 1075 516 
Q 1375 441 1709 441 
Q 2250 441 2565 725 
Q 2881 1009 2881 1497 
Q 2881 1984 2565 2268 
Q 2250 2553 1709 2553 
Q 1456 2553 1204 2497 
Q 953 2441 691 2322 
L 691 4666 
z
" transform="scale(0.015625)"/>
       </defs>
       <use xlink:href="#DejaVuSans-35"/>
       <use xlink:href="#DejaVuSans-30" x="63.623047"/>
       <use xlink:href="#DejaVuSans-30" x="127.246094"/>
      </g>
     </g>
    </g>
    <g id="ytick_6">
     <g id="line2d_23">
      <path d="M 57.6 58.756086 
L 414.72 58.756086 
" clip-path="url(#p1f3585c6b0)" style="fill: none; stroke: #b0b0b0; stroke-width: 0.8; stroke-linecap: square"/>
     </g>
     <g id="line2d_24">
      <g>
       <use xlink:href="#m9e94f64379" x="57.6" y="58.756086" style="stroke: #000000; stroke-width: 0.8"/>
      </g>
     </g>
     <g id="text_13">
      <!-- 600 -->
      <g transform="translate(31.5125 62.555305) scale(0.1 -0.1)">
       <use xlink:href="#DejaVuSans-36"/>
       <use xlink:href="#DejaVuSans-30" x="63.623047"/>
       <use xlink:href="#DejaVuSans-30" x="127.246094"/>
      </g>
     </g>
    </g>
    <g id="text_14">
     <!-- Distance [m] -->
     <g transform="translate(25.432812 206.751438) rotate(-90) scale(0.1 -0.1)">
      <defs>
       <path id="DejaVuSans-44" d="M 1259 4147 
L 1259 519 
L 2022 519 
Q 2988 519 3436 956 
Q 3884 1394 3884 2338 
Q 3884 3275 3436 3711 
Q 2988 4147 2022 4147 
L 1259 4147 
z
M 628 4666 
L 1925 4666 
Q 3281 4666 3915 4102 
Q 4550 3538 4550 2338 
Q 4550 1131 3912 565 
Q 3275 0 1925 0 
L 628 0 
L 628 4666 
z
" transform="scale(0.015625)"/>
       <path id="DejaVuSans-73" d="M 2834 3397 
L 2834 2853 
Q 2591 2978 2328 3040 
Q 2066 3103 1784 3103 
Q 1356 3103 1142 2972 
Q 928 2841 928 2578 
Q 928 2378 1081 2264 
Q 1234 2150 1697 2047 
L 1894 2003 
Q 2506 1872 2764 1633 
Q 3022 1394 3022 966 
Q 3022 478 2636 193 
Q 2250 -91 1575 -91 
Q 1294 -91 989 -36 
Q 684 19 347 128 
L 347 722 
Q 666 556 975 473 
Q 1284 391 1588 391 
Q 1994 391 2212 530 
Q 2431 669 2431 922 
Q 2431 1156 2273 1281 
Q 2116 1406 1581 1522 
L 1381 1569 
Q 847 1681 609 1914 
Q 372 2147 372 2553 
Q 372 3047 722 3315 
Q 1072 3584 1716 3584 
Q 2034 3584 2315 3537 
Q 2597 3491 2834 3397 
z
" transform="scale(0.015625)"/>
       <path id="DejaVuSans-74" d="M 1172 4494 
L 1172 3500 
L 2356 3500 
L 2356 3053 
L 1172 3053 
L 1172 1153 
Q 1172 725 1289 603 
Q 1406 481 1766 481 
L 2356 481 
L 2356 0 
L 1766 0 
Q 1100 0 847 248 
Q 594 497 594 1153 
L 594 3053 
L 172 3053 
L 172 3500 
L 594 3500 
L 594 4494 
L 1172 4494 
z
" transform="scale(0.015625)"/>
       <path id="DejaVuSans-61" d="M 2194 1759 
Q 1497 1759 1228 1600 
Q 959 1441 959 1056 
Q 959 750 1161 570 
Q 1363 391 1709 391 
Q 2188 391 2477 730 
Q 2766 1069 2766 1631 
L 2766 1759 
L 2194 1759 
z
M 3341 1997 
L 3341 0 
L 2766 0 
L 2766 531 
Q 2569 213 2275 61 
Q 1981 -91 1556 -91 
Q 1019 -91 701 211 
Q 384 513 384 1019 
Q 384 1609 779 1909 
Q 1175 2209 1959 2209 
L 2766 2209 
L 2766 2266 
Q 2766 2663 2505 2880 
Q 2244 3097 1772 3097 
Q 1472 3097 1187 3025 
Q 903 2953 641 2809 
L 641 3341 
Q 956 3463 1253 3523 
Q 1550 3584 1831 3584 
Q 2591 3584 2966 3190 
Q 3341 2797 3341 1997 
z
" transform="scale(0.015625)"/>
       <path id="DejaVuSans-63" d="M 3122 3366 
L 3122 2828 
Q 2878 2963 2633 3030 
Q 2388 3097 2138 3097 
Q 1578 3097 1268 2742 
Q 959 2388 959 1747 
Q 959 1106 1268 751 
Q 1578 397 2138 397 
Q 2388 397 2633 464 
Q 2878 531 3122 666 
L 3122 134 
Q 2881 22 2623 -34 
Q 2366 -91 2075 -91 
Q 1284 -91 818 406 
Q 353 903 353 1747 
Q 353 2603 823 3093 
Q 1294 3584 2113 3584 
Q 2378 3584 2631 3529 
Q 2884 3475 3122 3366 
z
" transform="scale(0.015625)"/>
       <path id="DejaVuSans-5b" d="M 550 4863 
L 1875 4863 
L 1875 4416 
L 1125 4416 
L 1125 -397 
L 1875 -397 
L 1875 -844 
L 550 -844 
L 550 4863 
z
" transform="scale(0.015625)"/>
       <path id="DejaVuSans-6d" d="M 3328 2828 
Q 3544 3216 3844 3400 
Q 4144 3584 4550 3584 
Q 5097 3584 5394 3201 
Q 5691 2819 5691 2113 
L 5691 0 
L 5113 0 
L 5113 2094 
Q 5113 2597 4934 2840 
Q 4756 3084 4391 3084 
Q 3944 3084 3684 2787 
Q 3425 2491 3425 1978 
L 3425 0 
L 2847 0 
L 2847 2094 
Q 2847 2600 2669 2842 
Q 2491 3084 2119 3084 
Q 1678 3084 1418 2786 
Q 1159 2488 1159 1978 
L 1159 0 
L 581 0 
L 581 3500 
L 1159 3500 
L 1159 2956 
Q 1356 3278 1631 3431 
Q 1906 3584 2284 3584 
Q 2666 3584 2933 3390 
Q 3200 3197 3328 2828 
z
" transform="scale(0.015625)"/>
       <path id="DejaVuSans-5d" d="M 1947 4863 
L 1947 -844 
L 622 -844 
L 622 -397 
L 1369 -397 
L 1369 4416 
L 622 4416 
L 622 4863 
L 1947 4863 
z
" transform="scale(0.015625)"/>
      </defs>
      <use xlink:href="#DejaVuSans-44"/>
      <use xlink:href="#DejaVuSans-69" x="77.001953"/>
      <use xlink:href="#DejaVuSans-73" x="104.785156"/>
      <use xlink:href="#DejaVuSans-74" x="156.884766"/>
      <use xlink:href="#DejaVuSans-61" x="196.09375"/>
      <use xlink:href="#DejaVuSans-6e" x="257.373047"/>
      <use xlink:href="#DejaVuSans-63" x="320.751953"/>
      <use xlink:href="#DejaVuSans-65" x="375.732422"/>
      <use xlink:href="#DejaVuSans-20" x="437.255859"/>
      <use xlink:href="#DejaVuSans-5b" x="469.042969"/>
      <use xlink:href="#DejaVuSans-6d" x="508.056641"/>
      <use xlink:href="#DejaVuSans-5d" x="605.46875"/>
     </g>
    </g>
   </g>
   <g id="line2d_25">
    <path d="M 73.832727 62.185271 
L 74.130575 62.189202 
L 74.428424 62.006801 
L 74.726272 63.303363 
L 75.02412 64.013899 
L 75.321968 64.01145 
L 75.619817 63.393886 
L 75.917665 63.440259 
L 76.215513 63.615708 
L 76.513361 61.777382 
L 77.109058 61.273103 
L 77.406906 63.040035 
L 77.704754 63.352017 
L 78.002602 63.354955 
L 78.30045 66.270008 
L 78.598299 66.836838 
L 78.896147 67.028612 
L 79.193995 69.383515 
L 79.491843 69.87052 
L 79.789691 70.051093 
L 80.08754 58.516378 
L 80.385388 54.046126 
L 80.683236 54.416732 
L 80.981084 58.238137 
L 81.278932 59.94284 
L 81.576781 59.756102 
L 81.874629 63.925557 
L 82.172477 65.304258 
L 82.470325 65.485487 
L 82.768173 59.42114 
L 83.066022 57.635665 
L 83.36387 57.638593 
L 83.661718 62.697636 
L 83.959566 64.753516 
L 84.257415 64.382883 
L 84.555263 66.113864 
L 84.853111 66.562003 
L 85.150959 66.380254 
L 85.448807 66.755218 
L 85.746656 66.503097 
L 86.044504 66.876512 
L 86.342352 64.37747 
L 86.6402 63.419645 
L 86.938048 63.602886 
L 87.235897 61.243825 
L 87.533745 60.431524 
L 87.831593 60.613088 
L 88.129441 63.320118 
L 88.427289 64.287699 
L 88.725138 64.46372 
L 89.320834 65.69771 
L 89.618682 65.690374 
L 90.214379 67.316164 
L 90.512227 66.94559 
L 90.810075 62.422818 
L 91.107923 60.792191 
L 91.405771 60.605698 
L 91.70362 64.627303 
L 92.001468 65.916572 
L 92.299316 65.540325 
L 92.597164 66.571656 
L 92.895013 66.783454 
L 93.192861 66.786565 
L 93.490709 63.801084 
L 93.788557 62.363954 
L 94.086405 62.546311 
L 94.384254 63.911869 
L 94.682102 64.086641 
L 94.97995 64.450876 
L 95.277798 59.076058 
L 95.575646 57.670331 
L 95.873495 57.483124 
L 96.171343 60.269879 
L 96.469191 61.029697 
L 96.767039 61.210503 
L 97.064887 64.950722 
L 97.362736 66.494696 
L 97.660584 66.318508 
L 97.958432 56.939504 
L 98.25628 53.749532 
L 98.554128 53.568 
L 98.851977 61.295569 
L 99.149825 63.794405 
L 99.447673 63.791864 
L 99.745521 67.461975 
L 100.043369 68.673447 
L 100.341218 68.861129 
L 100.639066 67.11373 
L 100.936914 66.270807 
L 101.234762 66.463736 
L 101.532611 63.910343 
L 101.830459 62.874612 
L 102.128307 63.241756 
L 102.426155 62.707186 
L 102.724003 62.713084 
L 103.021852 62.88928 
L 103.3197 58.779971 
L 103.617548 57.529586 
L 103.915396 57.711721 
L 104.213244 65.817417 
L 104.511093 68.890037 
L 104.808941 68.703468 
L 105.106789 69.514902 
L 105.404637 69.526836 
L 105.702485 69.340591 
L 106.000334 71.679511 
L 106.298182 72.288691 
L 106.59603 71.915707 
L 106.893878 66.800824 
L 107.191726 64.790564 
L 107.489575 64.97206 
L 107.787423 67.572335 
L 108.085271 68.49465 
L 108.383119 68.681706 
L 108.680967 67.300341 
L 108.978816 66.888895 
L 109.574512 66.810337 
L 109.87236 66.770378 
L 110.170209 66.588012 
L 110.468057 63.817767 
L 110.765905 62.921843 
L 111.063753 62.919452 
L 111.361601 60.750478 
L 111.65945 59.764779 
L 111.957298 59.767899 
L 112.255146 62.409437 
L 112.552994 62.950788 
L 112.850842 62.948821 
L 113.148691 64.930672 
L 113.446539 65.321254 
L 113.744387 65.502898 
L 114.042235 62.869642 
L 114.340083 61.597737 
L 114.637932 61.966658 
L 114.93578 60.768083 
L 115.233628 60.280152 
L 115.531476 60.461762 
L 115.829324 64.375849 
L 116.127173 65.996694 
L 116.425021 65.988876 
L 116.722869 70.225679 
L 117.020717 72.065094 
L 117.318565 71.878169 
L 117.616414 62.481803 
L 117.914262 59.258008 
L 118.21211 59.249655 
L 118.807807 59.752249 
L 119.105655 59.374825 
L 119.403503 65.971236 
L 119.701351 68.190393 
L 119.999199 68.009863 
L 120.297048 62.688156 
L 120.594896 60.618498 
L 120.892744 60.793104 
L 121.190592 64.466863 
L 121.48844 65.228428 
L 121.786289 65.415387 
L 122.084137 65.285067 
L 122.381985 64.871109 
L 122.679833 65.231386 
L 122.977681 62.372997 
L 123.27553 61.719731 
L 123.573378 61.717503 
L 123.871226 64.731761 
L 124.169074 65.928574 
L 124.466922 65.921069 
L 124.764771 67.297628 
L 125.062619 67.815987 
L 125.360467 67.808342 
L 125.658315 65.744117 
L 125.956163 65.038251 
L 126.254012 64.857421 
L 126.55186 62.835095 
L 126.849708 61.860766 
L 127.147556 61.858588 
L 127.445405 66.475566 
L 127.743253 67.627909 
L 128.338949 68.273264 
L 128.636797 68.109953 
L 128.934646 68.303656 
L 129.232494 63.660968 
L 129.530342 62.504492 
L 129.82819 62.496608 
L 130.126038 66.546721 
L 130.423887 68.252334 
L 130.721735 68.071528 
L 131.019583 66.623646 
L 131.317431 66.128392 
L 131.615279 66.126451 
L 131.913128 63.903004 
L 132.210976 63.090589 
L 132.508824 62.903963 
L 132.806672 65.930301 
L 133.10452 66.944987 
L 133.402369 66.573015 
L 133.700217 67.504278 
L 133.998065 67.427044 
L 134.295913 67.798881 
L 134.593761 66.763873 
L 134.89161 66.532623 
L 135.189458 66.530353 
L 135.487306 68.992779 
L 135.785154 69.901707 
L 136.083003 70.085871 
L 136.380851 68.287513 
L 136.678699 67.979652 
L 136.976547 67.982959 
L 137.274395 64.448226 
L 137.572244 63.39135 
L 137.870092 63.377784 
L 138.16794 63.954533 
L 138.465788 64.262781 
L 138.763636 64.076112 
L 139.061485 65.127149 
L 139.359333 65.535512 
L 139.657181 65.343458 
L 139.955029 72.870083 
L 140.252877 75.188316 
L 140.550726 75.566219 
L 140.848574 65.49941 
L 141.146422 62.188897 
L 141.44427 62.375676 
L 141.742118 65.937346 
L 142.039967 67.379005 
L 142.337815 67.554322 
L 142.635663 66.741898 
L 143.231359 66.67104 
L 143.529208 62.404432 
L 143.827056 61.026722 
L 144.124904 61.029972 
L 144.422752 64.693808 
L 144.720601 66.039758 
L 145.018449 65.852722 
L 145.316297 59.950779 
L 145.614145 57.968621 
L 145.911993 57.787228 
L 146.209842 62.504861 
L 146.50769 63.896777 
L 146.805538 63.888773 
L 147.103386 59.225734 
L 147.401234 57.548088 
L 147.699083 57.724469 
L 147.996931 64.911598 
L 148.294779 67.17952 
L 148.592627 67.367506 
L 148.890475 69.033834 
L 149.188324 69.774736 
L 149.486172 69.766705 
L 149.78402 63.772267 
L 150.081868 61.9 
L 150.379716 61.713484 
L 150.975413 62.023865 
L 151.273261 61.837147 
L 151.571109 60.982191 
L 151.868957 60.572227 
L 152.166806 60.390427 
L 152.464654 67.497815 
L 152.762502 70.053483 
L 153.06035 69.877811 
L 153.358198 63.083009 
L 153.656047 60.5779 
L 153.953895 60.756011 
L 154.251743 66.739671 
L 154.549591 68.830166 
L 154.84744 68.82213 
L 155.145288 60.83266 
L 155.443136 57.851428 
L 155.740984 58.044383 
L 156.038832 63.46527 
L 156.336681 65.710466 
L 156.634529 65.708199 
L 156.932377 64.136858 
L 157.230225 63.598948 
L 157.528073 63.602224 
L 157.825922 69.376735 
L 158.12377 71.469005 
L 158.421618 71.277017 
L 158.719466 64.359091 
L 159.017314 62.154877 
L 159.315163 61.972971 
L 159.613011 65.037344 
L 159.910859 65.91617 
L 160.208707 66.092845 
L 160.506555 61.983781 
L 160.804404 60.53362 
L 161.102252 60.726833 
L 161.4001 64.540743 
L 161.697948 65.803418 
L 162.591493 65.833624 
L 162.889341 66.014429 
L 163.187189 67.976311 
L 163.485038 68.796982 
L 163.782886 68.800444 
L 164.080734 66.811181 
L 164.378582 66.325529 
L 164.67643 66.143334 
L 164.974279 60.394412 
L 165.272127 58.550773 
L 165.569975 58.543738 
L 165.867823 60.809396 
L 166.165671 61.652961 
L 166.46352 61.460828 
L 166.761368 66.363026 
L 167.059216 68.100075 
L 167.357064 68.103504 
L 167.654912 65.580628 
L 167.952761 64.549085 
L 168.250609 64.736782 
L 168.548457 58.86448 
L 168.846305 56.59799 
L 169.144153 56.965883 
L 169.442002 63.083529 
L 169.73985 65.415603 
L 170.037698 65.407425 
L 170.335546 61.639174 
L 170.633394 60.738922 
L 170.931243 60.558129 
L 171.229091 64.801751 
L 171.526939 66.509378 
L 171.824787 66.327547 
L 172.122636 66.423615 
L 172.420484 66.138632 
L 172.718332 66.136515 
L 173.01618 64.134395 
L 173.314028 63.403325 
L 173.611877 63.221605 
L 173.909725 60.952784 
L 174.207573 60.054475 
L 174.505421 60.236441 
L 175.101118 59.409599 
L 175.398966 59.591499 
L 175.696814 62.191417 
L 175.994662 62.69252 
L 176.29251 62.880404 
L 176.888207 61.834401 
L 177.186055 62.200661 
L 177.483903 67.62451 
L 177.781751 69.918305 
L 178.0796 69.737732 
L 178.377448 62.968686 
L 178.675296 60.837331 
L 178.973144 60.829377 
L 179.270992 60.436661 
L 179.568841 60.721514 
L 179.866689 60.546725 
L 180.164537 65.792756 
L 180.462385 67.550887 
L 180.760234 67.179738 
L 181.058082 63.694187 
L 181.35593 62.348695 
L 181.653778 62.163214 
L 181.951626 61.14978 
L 182.249475 60.606654 
L 182.547323 60.788788 
L 182.845171 61.143687 
L 183.440867 61.445315 
L 183.738716 59.71771 
L 184.036564 59.259957 
L 184.334412 59.443822 
L 184.63226 65.604312 
L 184.930108 68.167707 
L 185.227957 67.969885 
L 185.525805 63.048215 
L 185.823653 61.44841 
L 186.121501 61.629463 
L 186.419349 60.317182 
L 186.717198 60.310453 
L 187.015046 60.124013 
L 187.610742 61.498036 
L 187.90859 61.130933 
L 188.206439 65.298984 
L 188.504287 66.938393 
L 188.802135 66.565743 
L 189.099983 64.223108 
L 189.397832 63.349474 
L 189.69568 63.359257 
L 189.993528 64.996402 
L 190.589224 65.412421 
L 190.887073 63.436348 
L 191.184921 62.665025 
L 191.482769 62.841122 
L 191.780617 65.308781 
L 192.078465 66.424868 
L 192.376314 66.243835 
L 192.674162 67.598501 
L 192.97201 68.213578 
L 193.269858 68.212104 
L 193.567706 67.319646 
L 193.865555 67.089027 
L 194.163403 67.092635 
L 194.461251 63.189407 
L 194.759099 62.122016 
L 195.056947 61.755198 
L 195.354796 62.800764 
L 195.652644 62.944445 
L 195.950492 62.769122 
L 196.24834 65.895827 
L 196.546188 66.639199 
L 196.844037 66.822171 
L 197.141885 59.449026 
L 197.439733 56.611821 
L 197.737581 56.793429 
L 198.03543 63.458636 
L 198.333278 65.561742 
L 198.631126 65.743244 
L 198.928974 65.147663 
L 199.524671 65.058351 
L 199.822519 67.719306 
L 200.120367 69.037571 
L 200.418215 69.03563 
L 200.716063 68.110016 
L 201.013912 68.35274 
L 201.31176 67.985457 
L 201.609608 59.436139 
L 201.907456 56.309737 
L 202.205304 56.313192 
L 202.503153 62.430703 
L 202.801001 64.469103 
L 203.098849 64.472603 
L 203.396697 62.093177 
L 203.694545 60.99164 
L 203.992394 61.174348 
L 204.290242 61.100019 
L 204.58809 60.877655 
L 204.885938 61.071153 
L 205.183786 61.689883 
L 205.779483 62.005825 
L 206.077331 67.499257 
L 206.375179 69.531193 
L 206.673028 69.71865 
L 206.970876 64.554545 
L 207.268724 62.94284 
L 207.566572 63.132154 
L 207.86442 60.067551 
L 208.460117 59.154564 
L 208.757965 65.475488 
L 209.055813 67.468381 
L 209.353661 67.461344 
L 209.65151 64.245584 
L 209.949358 63.363463 
L 210.545054 62.875494 
L 210.842902 63.017475 
L 211.140751 62.655514 
L 211.438599 62.792108 
L 211.736447 62.407843 
L 212.034295 62.585091 
L 212.332143 63.7861 
L 212.629992 63.933961 
L 212.92784 63.942805 
L 213.225688 63.533318 
L 213.523536 62.837502 
L 213.821384 63.216851 
L 214.119233 62.308829 
L 214.417081 61.99189 
L 214.714929 62.168564 
L 215.012777 66.32096 
L 215.310626 68.069829 
L 215.608474 67.883028 
L 215.906322 58.85067 
L 216.20417 55.656949 
L 216.502018 55.655136 
L 216.799867 63.597063 
L 217.097715 66.240494 
L 218.289108 65.641536 
L 218.586956 63.587464 
L 218.884804 62.573208 
L 219.182652 62.761396 
L 219.4805 60.370379 
L 219.778349 59.064304 
L 220.076197 59.252566 
L 220.374045 61.118068 
L 220.969741 61.606841 
L 221.26759 64.01624 
L 221.565438 64.524911 
L 221.863286 64.702115 
L 222.161134 66.010427 
L 222.458982 66.630325 
L 222.756831 66.806706 
L 223.352527 68.188451 
L 223.650375 68.013951 
L 223.948224 67.290557 
L 224.54392 66.928433 
L 224.841768 61.359973 
L 225.139616 59.63532 
L 225.437465 59.443053 
L 225.735313 66.294914 
L 226.033161 68.358344 
L 226.331009 68.361867 
L 226.628857 65.151981 
L 226.926706 63.643898 
L 227.224554 64.014157 
L 227.522402 62.87614 
L 227.82025 62.20584 
L 228.118098 62.5843 
L 228.415947 56.760927 
L 228.713795 54.814804 
L 229.011643 55.003411 
L 229.309491 59.818119 
L 229.607339 61.66216 
L 229.905188 61.665678 
L 230.203036 58.612997 
L 230.500884 57.596585 
L 230.798732 57.600228 
L 231.09658 62.530465 
L 231.394429 64.476835 
L 231.692277 64.105978 
L 231.990125 64.848024 
L 232.287973 64.831323 
L 232.585822 64.645231 
L 232.88367 60.960048 
L 233.181518 59.57641 
L 233.479366 59.389258 
L 233.777214 62.826108 
L 234.075063 63.538973 
L 234.372911 63.72249 
L 234.670759 64.450981 
L 234.968607 64.454591 
L 235.266455 64.627376 
L 235.564304 62.22245 
L 235.862152 61.222653 
L 236.16 61.226308 
L 236.457848 62.805002 
L 236.755696 62.779967 
L 237.053545 63.158284 
L 237.351393 66.712019 
L 237.649241 68.139501 
L 237.947089 68.323003 
L 238.244937 65.17606 
L 238.542786 64.675224 
L 238.840634 64.668439 
L 239.138482 62.605533 
L 239.43633 62.036993 
L 239.734178 61.854978 
L 240.032027 64.378795 
L 240.329875 65.341012 
L 240.627723 65.344594 
L 240.925571 67.153314 
L 241.22342 67.873056 
L 241.521268 67.680852 
L 241.819116 66.162356 
L 242.116964 65.326115 
L 242.414812 65.704125 
L 242.712661 57.626302 
L 243.010509 54.688034 
L 243.308357 54.864923 
L 243.606205 57.365806 
L 243.904053 58.084064 
L 244.201902 58.261627 
L 244.49975 60.429813 
L 244.797598 61.394594 
L 245.095446 61.398152 
L 245.393294 61.923336 
L 245.691143 62.217877 
L 245.988991 62.21616 
L 246.286839 63.180268 
L 246.584687 63.617367 
L 246.882535 63.62106 
L 247.180384 62.425718 
L 247.478232 62.20862 
L 247.77608 62.200666 
L 248.073928 64.677813 
L 248.371776 65.613116 
L 248.669625 65.246121 
L 248.967473 64.681672 
L 249.265321 64.503193 
L 249.563169 64.133252 
L 249.861018 64.821948 
L 250.158866 64.676871 
L 250.456714 64.859409 
L 250.754562 66.131288 
L 251.05241 65.998791 
L 251.350259 66.367424 
L 251.350259 66.367424 
" clip-path="url(#p1f3585c6b0)" style="fill: none; stroke: #1f77b4; stroke-width: 1.5; stroke-linecap: square"/>
   </g>
   <g id="line2d_26">
    <path d="M 73.832727 295.487184 
L 81.576781 295.399959 
L 82.172477 295.400233 
L 90.214379 295.335838 
L 90.512227 295.249064 
L 91.107923 295.313558 
L 92.001468 295.291278 
L 93.788557 295.269409 
L 94.086405 295.314925 
L 94.384254 295.205518 
L 94.97995 295.269955 
L 102.724003 295.182755 
L 103.915396 295.160612 
L 105.106789 295.18385 
L 105.702485 295.138745 
L 106.000334 295.224569 
L 106.298182 295.097683 
L 107.191726 295.139426 
L 107.489575 295.07557 
L 107.787423 295.162392 
L 108.383119 295.075982 
L 108.978816 295.11756 
L 109.87236 295.095282 
L 111.063753 295.054557 
L 111.65945 295.073416 
L 111.957298 295.118934 
L 112.255146 295.032444 
L 112.850842 295.096657 
L 113.446539 295.074242 
L 114.637932 295.074792 
L 114.93578 295.01102 
L 115.531476 295.052514 
L 115.829324 294.988771 
L 116.127173 295.075482 
L 116.722869 294.989184 
L 117.318565 295.03065 
L 117.914262 295.030927 
L 124.764771 294.988713 
L 125.062619 294.902391 
L 125.658315 294.966437 
L 125.956163 294.880143 
L 126.254012 294.966714 
L 126.849708 294.903219 
L 127.445405 294.921884 
L 128.934646 294.899886 
L 129.232494 294.945405 
L 129.82819 294.877609 
L 130.423887 294.859553 
L 131.019583 294.878162 
L 131.615279 294.901131 
L 133.402369 294.85658 
L 134.593761 294.857133 
L 134.89161 294.793641 
L 135.487306 294.834857 
L 137.572244 294.772225 
L 138.16794 294.813414 
L 140.252877 294.75081 
L 140.550726 294.814525 
L 140.848574 294.728425 
L 141.44427 294.792247 
L 141.742118 294.728838 
L 142.337815 294.769972 
L 143.231359 294.747698 
L 144.422752 294.684761 
L 144.720601 294.771085 
L 145.614145 294.726119 
L 147.103386 294.686011 
L 147.996931 294.727233 
L 148.890475 294.682268 
L 150.081868 294.705515 
L 150.379716 294.619553 
L 150.677565 294.705794 
L 151.571109 294.660829 
L 153.656047 294.598422 
L 154.251743 294.639392 
L 156.336681 294.617679 
L 164.080734 294.530541 
L 164.974279 294.490406 
L 165.569975 294.531241 
L 166.165671 294.50883 
L 173.611877 294.444259 
L 174.207573 294.421849 
L 175.101118 294.399578 
L 176.29251 294.359747 
L 176.590359 294.439613 
L 176.888207 294.360025 
L 177.483903 294.400698 
L 177.781751 294.337782 
L 178.377448 294.378427 
L 179.270992 294.338484 
L 181.35593 294.357143 
L 181.653778 294.29428 
L 182.249475 294.334873 
L 183.143019 294.294984 
L 185.227957 294.31359 
L 185.525805 294.250781 
L 186.121501 294.29132 
L 187.015046 294.251485 
L 187.610742 294.269333 
L 189.993528 294.23023 
L 203.396697 294.077935 
L 203.992394 294.072878 
L 207.566572 294.074581 
L 208.162269 294.052174 
L 215.608474 293.964954 
L 216.502018 293.925522 
L 218.586956 293.943685 
L 219.4805 293.904278 
L 220.671893 293.92199 
L 220.969741 293.85966 
L 221.565438 293.88261 
L 232.88367 293.706708 
L 233.479366 293.769282 
L 233.777214 293.707136 
L 234.372911 293.730087 
L 236.16 293.747879 
L 237.053545 293.70871 
L 238.244937 293.72619 
L 238.840634 293.703785 
L 241.22342 293.665384 
L 242.414812 293.682813 
L 243.010509 293.660409 
L 243.904053 293.59868 
L 244.49975 293.638434 
L 244.797598 293.576443 
L 245.095446 293.661413 
L 245.988991 293.554353 
L 246.584687 293.616748 
L 247.77608 293.617319 
L 248.371776 293.594916 
L 249.265321 293.572654 
L 251.05241 293.573518 
L 256.11583 293.53058 
L 256.413678 293.446052 
L 257.009374 293.469006 
L 257.307223 293.508466 
L 257.605071 293.423963 
L 258.200767 293.469583 
L 259.987857 293.46438 
L 260.285705 293.402595 
L 260.881401 293.425549 
L 261.477098 293.419716 
L 262.966339 293.403893 
L 263.859883 293.420874 
L 265.646972 293.359857 
L 266.540517 293.399479 
L 268.327606 293.315826 
L 269.221151 293.355397 
L 269.816847 293.332994 
L 270.710392 293.356119 
L 271.306088 293.311025 
L 273.093178 293.272808 
L 273.986722 293.312329 
L 274.582419 293.289927 
L 275.475963 293.228636 
L 276.07166 293.290651 
L 276.369508 293.22907 
L 276.667356 293.290942 
L 277.560901 293.206984 
L 277.858749 293.268831 
L 278.454445 293.24643 
L 280.241535 293.185623 
L 280.539383 293.247445 
L 280.837231 293.163248 
L 281.135079 293.225044 
L 281.432927 293.163538 
L 281.730776 293.225335 
L 282.028624 293.163829 
L 282.326472 293.263585 
L 282.922168 293.164259 
L 284.41141 293.158563 
L 286.198499 293.097859 
L 286.794195 293.120816 
L 287.68774 293.160163 
L 288.283436 293.115071 
L 290.666222 293.054709 
L 290.96407 293.116381 
L 291.261918 293.055001 
L 291.559766 293.116673 
L 292.453311 293.010251 
L 293.049008 293.072017 
L 295.729641 293.011854 
L 296.623186 293.051077 
L 297.218882 292.989916 
L 298.112427 293.029114 
L 298.410275 292.967834 
L 298.708123 293.029406 
L 299.601668 292.945752 
L 299.899516 293.022297 
L 300.495213 292.984896 
L 306.452177 292.942437 
L 306.750025 292.85859 
L 307.345721 292.881549 
L 308.834962 292.898226 
L 310.026355 292.837533 
L 310.9199 292.876559 
L 311.813445 292.79308 
L 312.409141 292.81604 
L 313.302686 292.83235 
L 316.281168 292.772613 
L 317.174712 292.788875 
L 323.727373 292.724029 
L 324.323069 292.701632 
L 325.216614 292.641018 
L 325.514462 292.702222 
L 326.110158 292.679825 
L 327.003703 292.641901 
L 328.492944 292.612929 
L 331.769274 292.614551 
L 332.662819 292.554035 
L 333.556364 292.570054 
L 334.747756 292.555066 
L 335.045605 292.608026 
L 335.641301 292.548391 
L 337.726239 292.48854 
L 338.024087 292.549574 
L 338.619783 292.527179 
L 339.513328 292.46676 
L 339.811176 292.52777 
L 340.406872 292.505375 
L 346.959533 292.440557 
L 347.555229 292.418162 
L 348.448774 292.380532 
L 349.938015 292.396658 
L 350.83156 292.336386 
L 351.725104 292.374858 
L 352.320801 292.352463 
L 353.214345 292.330212 
L 355.299283 292.270607 
L 355.597131 292.331401 
L 356.192827 292.309007 
L 357.086372 292.271498 
L 358.575613 292.287506 
L 359.469158 292.227355 
L 360.064854 292.265558 
L 360.958399 292.20543 
L 361.851943 292.24376 
L 362.745488 292.206323 
L 364.234729 292.19957 
L 365.128274 292.162182 
L 366.915363 292.20091 
L 367.808907 292.118188 
L 368.702452 292.156424 
L 369.595997 292.096416 
L 370.191693 292.134477 
L 375.552961 292.069091 
L 375.850809 292.008879 
L 376.446505 292.031845 
L 377.935746 292.047597 
L 378.829291 291.987708 
L 379.722836 292.003113 
L 382.40347 292.00446 
L 382.999166 291.959378 
L 385.6798 291.900484 
L 386.573344 291.938488 
L 387.169041 291.916097 
L 388.062585 291.879014 
L 388.658282 291.894151 
L 389.551827 291.857095 
L 390.445371 291.895052 
L 391.338916 291.812662 
L 391.934612 291.858296 
L 398.487273 291.785659 
L 398.487273 291.785659 
" clip-path="url(#p1f3585c6b0)" style="fill: none; stroke: #ff7f0e; stroke-width: 1.5; stroke-linecap: square"/>
   </g>
   <g id="patch_3">
    <path d="M 57.6 307.584 
L 57.6 41.472 
" style="fill: none; stroke: #000000; stroke-width: 0.8; stroke-linejoin: miter; stroke-linecap: square"/>
   </g>
   <g id="patch_4">
    <path d="M 414.72 307.584 
L 414.72 41.472 
" style="fill: none; stroke: #000000; stroke-width: 0.8; stroke-linejoin: miter; stroke-linecap: square"/>
   </g>
   <g id="patch_5">
    <path d="M 57.6 307.584 
L 414.72 307.584 
" style="fill: none; stroke: #000000; stroke-width: 0.8; stroke-linejoin: miter; stroke-linecap: square"/>
   </g>
   <g id="patch_6">
    <path d="M 57.6 41.472 
L 414.72 41.472 
" style="fill: none; stroke: #000000; stroke-width: 0.8; stroke-linejoin: miter; stroke-linecap: square"/>
   </g>
   <g id="text_15">
    <!-- Pixel-to-Pixel distances (GSD) -->
    <g transform="translate(147.826875 35.472) scale(0.12 -0.12)">
     <defs>
      <path id="DejaVuSans-2d" d="M 313 2009 
L 1997 2009 
L 1997 1497 
L 313 1497 
L 313 2009 
z
" transform="scale(0.015625)"/>
      <path id="DejaVuSans-6f" d="M 1959 3097 
Q 1497 3097 1228 2736 
Q 959 2375 959 1747 
Q 959 1119 1226 758 
Q 1494 397 1959 397 
Q 2419 397 2687 759 
Q 2956 1122 2956 1747 
Q 2956 2369 2687 2733 
Q 2419 3097 1959 3097 
z
M 1959 3584 
Q 2709 3584 3137 3096 
Q 3566 2609 3566 1747 
Q 3566 888 3137 398 
Q 2709 -91 1959 -91 
Q 1206 -91 779 398 
Q 353 888 353 1747 
Q 353 2609 779 3096 
Q 1206 3584 1959 3584 
z
" transform="scale(0.015625)"/>
      <path id="DejaVuSans-28" d="M 1984 4856 
Q 1566 4138 1362 3434 
Q 1159 2731 1159 2009 
Q 1159 1288 1364 580 
Q 1569 -128 1984 -844 
L 1484 -844 
Q 1016 -109 783 600 
Q 550 1309 550 2009 
Q 550 2706 781 3412 
Q 1013 4119 1484 4856 
L 1984 4856 
z
" transform="scale(0.015625)"/>
      <path id="DejaVuSans-47" d="M 3809 666 
L 3809 1919 
L 2778 1919 
L 2778 2438 
L 4434 2438 
L 4434 434 
Q 4069 175 3628 42 
Q 3188 -91 2688 -91 
Q 1594 -91 976 548 
Q 359 1188 359 2328 
Q 359 3472 976 4111 
Q 1594 4750 2688 4750 
Q 3144 4750 3555 4637 
Q 3966 4525 4313 4306 
L 4313 3634 
Q 3963 3931 3569 4081 
Q 3175 4231 2741 4231 
Q 1884 4231 1454 3753 
Q 1025 3275 1025 2328 
Q 1025 1384 1454 906 
Q 1884 428 2741 428 
Q 3075 428 3337 486 
Q 3600 544 3809 666 
z
" transform="scale(0.015625)"/>
      <path id="DejaVuSans-53" d="M 3425 4513 
L 3425 3897 
Q 3066 4069 2747 4153 
Q 2428 4238 2131 4238 
Q 1616 4238 1336 4038 
Q 1056 3838 1056 3469 
Q 1056 3159 1242 3001 
Q 1428 2844 1947 2747 
L 2328 2669 
Q 3034 2534 3370 2195 
Q 3706 1856 3706 1288 
Q 3706 609 3251 259 
Q 2797 -91 1919 -91 
Q 1588 -91 1214 -16 
Q 841 59 441 206 
L 441 856 
Q 825 641 1194 531 
Q 1563 422 1919 422 
Q 2459 422 2753 634 
Q 3047 847 3047 1241 
Q 3047 1584 2836 1778 
Q 2625 1972 2144 2069 
L 1759 2144 
Q 1053 2284 737 2584 
Q 422 2884 422 3419 
Q 422 4038 858 4394 
Q 1294 4750 2059 4750 
Q 2388 4750 2728 4690 
Q 3069 4631 3425 4513 
z
" transform="scale(0.015625)"/>
      <path id="DejaVuSans-29" d="M 513 4856 
L 1013 4856 
Q 1481 4119 1714 3412 
Q 1947 2706 1947 2009 
Q 1947 1309 1714 600 
Q 1481 -109 1013 -844 
L 513 -844 
Q 928 -128 1133 580 
Q 1338 1288 1338 2009 
Q 1338 2731 1133 3434 
Q 928 4138 513 4856 
z
" transform="scale(0.015625)"/>
     </defs>
     <use xlink:href="#DejaVuSans-50"/>
     <use xlink:href="#DejaVuSans-69" x="58.052734"/>
     <use xlink:href="#DejaVuSans-78" x="85.835938"/>
     <use xlink:href="#DejaVuSans-65" x="141.890625"/>
     <use xlink:href="#DejaVuSans-6c" x="203.414062"/>
     <use xlink:href="#DejaVuSans-2d" x="231.197266"/>
     <use xlink:href="#DejaVuSans-74" x="267.28125"/>
     <use xlink:href="#DejaVuSans-6f" x="306.490234"/>
     <use xlink:href="#DejaVuSans-2d" x="369.546875"/>
     <use xlink:href="#DejaVuSans-50" x="405.630859"/>
     <use xlink:href="#DejaVuSans-69" x="463.683594"/>
     <use xlink:href="#DejaVuSans-78" x="491.466797"/>
     <use xlink:href="#DejaVuSans-65" x="547.521484"/>
     <use xlink:href="#DejaVuSans-6c" x="609.044922"/>
     <use xlink:href="#DejaVuSans-20" x="636.828125"/>
     <use xlink:href="#DejaVuSans-64" x="668.615234"/>
     <use xlink:href="#DejaVuSans-69" x="732.091797"/>
     <use xlink:href="#DejaVuSans-73" x="759.875"/>
     <use xlink:href="#DejaVuSans-74" x="811.974609"/>
     <use xlink:href="#DejaVuSans-61" x="851.183594"/>
     <use xlink:href="#DejaVuSans-6e" x="912.462891"/>
     <use xlink:href="#DejaVuSans-63" x="975.841797"/>
     <use xlink:href="#DejaVuSans-65" x="1030.822266"/>
     <use xlink:href="#DejaVuSans-73" x="1092.345703"/>
     <use xlink:href="#DejaVuSans-20" x="1144.445312"/>
     <use xlink:href="#DejaVuSans-28" x="1176.232422"/>
     <use xlink:href="#DejaVuSans-47" x="1215.246094"/>
     <use xlink:href="#DejaVuSans-53" x="1292.736328"/>
     <use xlink:href="#DejaVuSans-44" x="1356.212891"/>
     <use xlink:href="#DejaVuSans-29" x="1433.214844"/>
    </g>
   </g>
   <g id="legend_1">
    <g id="patch_7">
     <path d="M 274.13875 78.82825 
L 407.72 78.82825 
Q 409.72 78.82825 409.72 76.82825 
L 409.72 48.472 
Q 409.72 46.472 407.72 46.472 
L 274.13875 46.472 
Q 272.13875 46.472 272.13875 48.472 
L 272.13875 76.82825 
Q 272.13875 78.82825 274.13875 78.82825 
z
" style="fill: #ffffff; opacity: 0.8; stroke: #cccccc; stroke-linejoin: miter"/>
    </g>
    <g id="line2d_27">
     <path d="M 276.13875 54.570437 
L 286.13875 54.570437 
L 296.13875 54.570437 
" style="fill: none; stroke: #1f77b4; stroke-width: 1.5; stroke-linecap: square"/>
    </g>
    <g id="text_16">
     <!-- Along track 588.492 -->
     <g transform="translate(304.13875 58.070437) scale(0.1 -0.1)">
      <defs>
       <path id="DejaVuSans-41" d="M 2188 4044 
L 1331 1722 
L 3047 1722 
L 2188 4044 
z
M 1831 4666 
L 2547 4666 
L 4325 0 
L 3669 0 
L 3244 1197 
L 1141 1197 
L 716 0 
L 50 0 
L 1831 4666 
z
" transform="scale(0.015625)"/>
       <path id="DejaVuSans-67" d="M 2906 1791 
Q 2906 2416 2648 2759 
Q 2391 3103 1925 3103 
Q 1463 3103 1205 2759 
Q 947 2416 947 1791 
Q 947 1169 1205 825 
Q 1463 481 1925 481 
Q 2391 481 2648 825 
Q 2906 1169 2906 1791 
z
M 3481 434 
Q 3481 -459 3084 -895 
Q 2688 -1331 1869 -1331 
Q 1566 -1331 1297 -1286 
Q 1028 -1241 775 -1147 
L 775 -588 
Q 1028 -725 1275 -790 
Q 1522 -856 1778 -856 
Q 2344 -856 2625 -561 
Q 2906 -266 2906 331 
L 2906 616 
Q 2728 306 2450 153 
Q 2172 0 1784 0 
Q 1141 0 747 490 
Q 353 981 353 1791 
Q 353 2603 747 3093 
Q 1141 3584 1784 3584 
Q 2172 3584 2450 3431 
Q 2728 3278 2906 2969 
L 2906 3500 
L 3481 3500 
L 3481 434 
z
" transform="scale(0.015625)"/>
       <path id="DejaVuSans-72" d="M 2631 2963 
Q 2534 3019 2420 3045 
Q 2306 3072 2169 3072 
Q 1681 3072 1420 2755 
Q 1159 2438 1159 1844 
L 1159 0 
L 581 0 
L 581 3500 
L 1159 3500 
L 1159 2956 
Q 1341 3275 1631 3429 
Q 1922 3584 2338 3584 
Q 2397 3584 2469 3576 
Q 2541 3569 2628 3553 
L 2631 2963 
z
" transform="scale(0.015625)"/>
       <path id="DejaVuSans-6b" d="M 581 4863 
L 1159 4863 
L 1159 1991 
L 2875 3500 
L 3609 3500 
L 1753 1863 
L 3688 0 
L 2938 0 
L 1159 1709 
L 1159 0 
L 581 0 
L 581 4863 
z
" transform="scale(0.015625)"/>
       <path id="DejaVuSans-2e" d="M 684 794 
L 1344 794 
L 1344 0 
L 684 0 
L 684 794 
z
" transform="scale(0.015625)"/>
       <path id="DejaVuSans-39" d="M 703 97 
L 703 672 
Q 941 559 1184 500 
Q 1428 441 1663 441 
Q 2288 441 2617 861 
Q 2947 1281 2994 2138 
Q 2813 1869 2534 1725 
Q 2256 1581 1919 1581 
Q 1219 1581 811 2004 
Q 403 2428 403 3163 
Q 403 3881 828 4315 
Q 1253 4750 1959 4750 
Q 2769 4750 3195 4129 
Q 3622 3509 3622 2328 
Q 3622 1225 3098 567 
Q 2575 -91 1691 -91 
Q 1453 -91 1209 -44 
Q 966 3 703 97 
z
M 1959 2075 
Q 2384 2075 2632 2365 
Q 2881 2656 2881 3163 
Q 2881 3666 2632 3958 
Q 2384 4250 1959 4250 
Q 1534 4250 1286 3958 
Q 1038 3666 1038 3163 
Q 1038 2656 1286 2365 
Q 1534 2075 1959 2075 
z
" transform="scale(0.015625)"/>
      </defs>
      <use xlink:href="#DejaVuSans-41"/>
      <use xlink:href="#DejaVuSans-6c" x="68.408203"/>
      <use xlink:href="#DejaVuSans-6f" x="96.191406"/>
      <use xlink:href="#DejaVuSans-6e" x="157.373047"/>
      <use xlink:href="#DejaVuSans-67" x="220.751953"/>
      <use xlink:href="#DejaVuSans-20" x="284.228516"/>
      <use xlink:href="#DejaVuSans-74" x="316.015625"/>
      <use xlink:href="#DejaVuSans-72" x="355.224609"/>
      <use xlink:href="#DejaVuSans-61" x="396.337891"/>
      <use xlink:href="#DejaVuSans-63" x="457.617188"/>
      <use xlink:href="#DejaVuSans-6b" x="512.597656"/>
      <use xlink:href="#DejaVuSans-20" x="570.507812"/>
      <use xlink:href="#DejaVuSans-35" x="602.294922"/>
      <use xlink:href="#DejaVuSans-38" x="665.917969"/>
      <use xlink:href="#DejaVuSans-38" x="729.541016"/>
      <use xlink:href="#DejaVuSans-2e" x="793.164062"/>
      <use xlink:href="#DejaVuSans-34" x="824.951172"/>
      <use xlink:href="#DejaVuSans-39" x="888.574219"/>
      <use xlink:href="#DejaVuSans-32" x="952.197266"/>
     </g>
    </g>
    <g id="line2d_28">
     <path d="M 276.13875 69.248562 
L 286.13875 69.248562 
L 296.13875 69.248562 
" style="fill: none; stroke: #ff7f0e; stroke-width: 1.5; stroke-linecap: square"/>
    </g>
    <g id="text_17">
     <!-- Across Track 74.49 -->
     <g transform="translate(304.13875 72.748562) scale(0.1 -0.1)">
      <defs>
       <path id="DejaVuSans-54" d="M -19 4666 
L 3928 4666 
L 3928 4134 
L 2272 4134 
L 2272 0 
L 1638 0 
L 1638 4134 
L -19 4134 
L -19 4666 
z
" transform="scale(0.015625)"/>
       <path id="DejaVuSans-37" d="M 525 4666 
L 3525 4666 
L 3525 4397 
L 1831 0 
L 1172 0 
L 2766 4134 
L 525 4134 
L 525 4666 
z
" transform="scale(0.015625)"/>
      </defs>
      <use xlink:href="#DejaVuSans-41"/>
      <use xlink:href="#DejaVuSans-63" x="66.658203"/>
      <use xlink:href="#DejaVuSans-72" x="121.638672"/>
      <use xlink:href="#DejaVuSans-6f" x="160.501953"/>
      <use xlink:href="#DejaVuSans-73" x="221.683594"/>
      <use xlink:href="#DejaVuSans-73" x="273.783203"/>
      <use xlink:href="#DejaVuSans-20" x="325.882812"/>
      <use xlink:href="#DejaVuSans-54" x="357.669922"/>
      <use xlink:href="#DejaVuSans-72" x="404.003906"/>
      <use xlink:href="#DejaVuSans-61" x="445.117188"/>
      <use xlink:href="#DejaVuSans-63" x="506.396484"/>
      <use xlink:href="#DejaVuSans-6b" x="561.376953"/>
      <use xlink:href="#DejaVuSans-20" x="619.287109"/>
      <use xlink:href="#DejaVuSans-37" x="651.074219"/>
      <use xlink:href="#DejaVuSans-34" x="714.697266"/>
      <use xlink:href="#DejaVuSans-2e" x="778.320312"/>
      <use xlink:href="#DejaVuSans-34" x="810.107422"/>
      <use xlink:href="#DejaVuSans-39" x="873.730469"/>
     </g>
    </g>
   </g>
  </g>
 </g>
 <defs>
  <clipPath id="p1f3585c6b0">
   <rect x="57.6" y="41.472" width="357.12" height="266.112"/>
  </clipPath>
 </defs>
</svg>
